<mxfile host="65bd71144e">
    <diagram name="Trang-1" id="TLAeOfRTEH3pvWSQexlR">
        <mxGraphModel dx="746" dy="466" grid="1" gridSize="10" guides="1" tooltips="1" connect="1" arrows="1" fold="1" page="1" pageScale="1" pageWidth="850" pageHeight="1100" math="0" shadow="0">
            <root>
                <mxCell id="0"/>
                <mxCell id="1" parent="0"/>
                <mxCell id="5l3kJBEuA68pp9XpA4YI-1" value="Người Dùng" style="whiteSpace=wrap;html=1;align=center;" parent="1" vertex="1">
                    <mxGeometry x="290" y="190" width="100" height="40" as="geometry"/>
                </mxCell>
                <mxCell id="5l3kJBEuA68pp9XpA4YI-2" value="ID" style="ellipse;whiteSpace=wrap;html=1;align=center;fontStyle=4;" parent="1" vertex="1">
                    <mxGeometry x="180" y="120" width="100" height="40" as="geometry"/>
                </mxCell>
                <mxCell id="5l3kJBEuA68pp9XpA4YI-4" value="Họ và tên" style="ellipse;whiteSpace=wrap;html=1;align=center;" parent="1" vertex="1">
                    <mxGeometry x="110" y="240" width="100" height="40" as="geometry"/>
                </mxCell>
                <mxCell id="5l3kJBEuA68pp9XpA4YI-5" value="Tuổi" style="ellipse;whiteSpace=wrap;html=1;align=center;" parent="1" vertex="1">
                    <mxGeometry x="280" y="310" width="100" height="40" as="geometry"/>
                </mxCell>
                <mxCell id="5l3kJBEuA68pp9XpA4YI-6" value="Email" style="ellipse;whiteSpace=wrap;html=1;align=center;" parent="1" vertex="1">
                    <mxGeometry x="440" y="120" width="100" height="40" as="geometry"/>
                </mxCell>
                <mxCell id="5l3kJBEuA68pp9XpA4YI-7" value="Ngày tạo" style="ellipse;whiteSpace=wrap;html=1;align=center;" parent="1" vertex="1">
                    <mxGeometry x="425" y="240" width="100" height="40" as="geometry"/>
                </mxCell>
                <mxCell id="5l3kJBEuA68pp9XpA4YI-9" value="" style="endArrow=none;html=1;rounded=0;entryX=0.5;entryY=0;entryDx=0;entryDy=0;exitX=1;exitY=0.5;exitDx=0;exitDy=0;" parent="1" source="5l3kJBEuA68pp9XpA4YI-2" target="5l3kJBEuA68pp9XpA4YI-1" edge="1">
                    <mxGeometry relative="1" as="geometry">
                        <mxPoint x="80" y="320" as="sourcePoint"/>
                        <mxPoint x="240" y="320" as="targetPoint"/>
                    </mxGeometry>
                </mxCell>
                <mxCell id="2" value="" style="endArrow=none;html=1;rounded=0;exitX=0.75;exitY=0;exitDx=0;exitDy=0;entryX=0;entryY=1;entryDx=0;entryDy=0;" edge="1" parent="1" source="5l3kJBEuA68pp9XpA4YI-1" target="5l3kJBEuA68pp9XpA4YI-6">
                    <mxGeometry relative="1" as="geometry">
                        <mxPoint x="370" y="160" as="sourcePoint"/>
                        <mxPoint x="530" y="160" as="targetPoint"/>
                    </mxGeometry>
                </mxCell>
                <mxCell id="3" value="" style="endArrow=none;html=1;rounded=0;exitX=1;exitY=0.75;exitDx=0;exitDy=0;entryX=0;entryY=0;entryDx=0;entryDy=0;" edge="1" parent="1" source="5l3kJBEuA68pp9XpA4YI-1" target="5l3kJBEuA68pp9XpA4YI-7">
                    <mxGeometry relative="1" as="geometry">
                        <mxPoint x="375" y="200" as="sourcePoint"/>
                        <mxPoint x="464.64466094067257" y="164.14213562373106" as="targetPoint"/>
                    </mxGeometry>
                </mxCell>
                <mxCell id="4" value="" style="endArrow=none;html=1;rounded=0;exitX=0.5;exitY=0;exitDx=0;exitDy=0;entryX=0.5;entryY=1;entryDx=0;entryDy=0;" edge="1" parent="1" source="5l3kJBEuA68pp9XpA4YI-5" target="5l3kJBEuA68pp9XpA4YI-1">
                    <mxGeometry relative="1" as="geometry">
                        <mxPoint x="385" y="210" as="sourcePoint"/>
                        <mxPoint x="474.64466094067257" y="174.14213562373106" as="targetPoint"/>
                    </mxGeometry>
                </mxCell>
                <mxCell id="5" value="" style="endArrow=none;html=1;rounded=0;exitX=1;exitY=0;exitDx=0;exitDy=0;entryX=0;entryY=0.5;entryDx=0;entryDy=0;" edge="1" parent="1" source="5l3kJBEuA68pp9XpA4YI-4" target="5l3kJBEuA68pp9XpA4YI-1">
                    <mxGeometry relative="1" as="geometry">
                        <mxPoint x="200.36" y="240" as="sourcePoint"/>
                        <mxPoint x="290.0046609406726" y="204.14213562373106" as="targetPoint"/>
                    </mxGeometry>
                </mxCell>
            </root>
        </mxGraphModel>
    </diagram>
</mxfile>